<svg version="1.1" xmlns="http://www.w3.org/2000/svg" xmlns:xlink="http://www.w3.org/1999/xlink" preserveAspectRatio="xMidYMid meet" viewBox="722 288 260 75"><g data-item-type="text" data-item="Business" id="logo__item--business" class="logo__item">
                <g class="logo__item__inner" transform="translate(795.5234375 344.072084395649) scale(1 1) rotate(0 0 0)">
                    <text data-part-id="logo__item--business" dy="0" dominant-baseline="auto" alignment-baseline="auto" font-family="Pacifico" font-size="32px" fill="#000001" letter-spacing="0" font-weight="normal" font-style="normal" data-font-family="Pacifico" data-font-weight="normal" data-font-style="normal" data-ttf-url="/builder_assets/fontsttf/font-montserrat-bold-normal.ttf" data-font-filename="pacifico-normal-normal" vector-effect="non-scaling-stroke" stroke="#0700ff" stroke-width="1">Attire Fusion</text>
                </g>
            </g><g data-item-type="image" data-item="Image" data-logo-item="" id="logo__item--logo_0" class="logo__item">
    <g class="logo__item__inner" transform="translate(719.6981411858558 285) scale(0.2823818126337513 0.2823818126337513) rotate(0 0 0)">
        
<g>
	<path fill="#FFB900" d="M186.1,77.5c0,0-136.9,0.7-165.2,128.6c0,0,65.3-89.2,156.3-60.2C177.1,146,194.4,114.9,186.1,77.5z" data-part-id="logo__item--logo_0__0"></path>
	<path fill="#32D23E" d="M188.4,22.2c0,0,97.3,74.7,35.8,208.8c0,0-36.6-10.4-56-42.2C168.1,188.8,234.9,137.7,188.4,22.2z" data-part-id="logo__item--logo_0__1"></path>
	<path fill="#128CE2" d="M65.8,182.6c0,0,29-24.9,64.3-25.6c0,0,15.9,93.3,132.1,100.9C262.1,258,150.8,306.4,65.8,182.6z" data-part-id="logo__item--logo_0__2"></path>
</g>

    </g>
</g></svg>